G04 EAGLE Gerber RS-274X export*
G75*
%MOMM*%
%FSLAX34Y34*%
%LPD*%
%INTop Copper*%
%IPPOS*%
%AMOC8*
5,1,8,0,0,1.08239X$1,22.5*%
G01*
G04 Define Apertures*
%ADD10C,0.130000*%
%ADD11C,1.524000*%
%ADD12P,1.64956X8X112.5*%
%ADD13C,1.524000*%
%ADD14C,1.800000*%
%ADD15C,0.304800*%
%ADD16C,0.812800*%
%ADD17C,0.320041*%
%ADD18C,1.160000*%
%ADD19C,0.574041*%
%ADD20C,0.550000*%
G36*
X876877Y6402D02*
X874896Y6000D01*
X28104Y6000D01*
X26198Y6371D01*
X24512Y7488D01*
X18488Y13512D01*
X17402Y15123D01*
X17000Y17104D01*
X17000Y386920D01*
X17342Y388751D01*
X18431Y390454D01*
X20099Y391598D01*
X22080Y392000D01*
X64920Y392000D01*
X66751Y391658D01*
X68454Y390569D01*
X69598Y388901D01*
X70000Y386920D01*
X70000Y298082D01*
X70000Y298078D01*
X70009Y298009D01*
X70160Y298000D01*
X112877Y298000D01*
X112963Y298004D01*
X112983Y298007D01*
X112879Y298160D01*
X112000Y301016D01*
X112000Y328920D01*
X112342Y330751D01*
X113431Y332454D01*
X115099Y333598D01*
X117080Y334000D01*
X121831Y334000D01*
X123587Y333687D01*
X125307Y332625D01*
X126477Y330976D01*
X126910Y329001D01*
X126540Y327013D01*
X125423Y325328D01*
X125145Y325049D01*
X124150Y322648D01*
X142450Y322648D01*
X141455Y325049D01*
X141177Y325328D01*
X140157Y326791D01*
X139692Y328758D01*
X140031Y330751D01*
X141120Y332454D01*
X142788Y333598D01*
X144769Y334000D01*
X147896Y334000D01*
X149802Y333629D01*
X151488Y332512D01*
X156512Y327488D01*
X157598Y325877D01*
X158000Y323896D01*
X158000Y298201D01*
X158016Y297997D01*
X158113Y297887D01*
X161858Y294142D01*
X162014Y294009D01*
X162160Y294000D01*
X358918Y294000D01*
X358922Y294000D01*
X358991Y294009D01*
X359000Y294160D01*
X359000Y327896D01*
X359371Y329802D01*
X360488Y331488D01*
X360512Y331512D01*
X362123Y332598D01*
X364104Y333000D01*
X375035Y333000D01*
X376829Y332673D01*
X378540Y331597D01*
X379697Y329939D01*
X380115Y327961D01*
X379728Y325976D01*
X378350Y322648D01*
X396650Y322648D01*
X395272Y325976D01*
X394888Y327758D01*
X395226Y329751D01*
X396316Y331454D01*
X397984Y332598D01*
X399965Y333000D01*
X405920Y333000D01*
X407751Y332658D01*
X409454Y331569D01*
X410598Y329901D01*
X411000Y327920D01*
X411000Y296201D01*
X411016Y295997D01*
X411113Y295887D01*
X411858Y295142D01*
X412014Y295009D01*
X412160Y295000D01*
X590918Y295000D01*
X590922Y295000D01*
X590991Y295009D01*
X591000Y295160D01*
X591000Y324920D01*
X591342Y326751D01*
X592431Y328454D01*
X594099Y329598D01*
X596080Y330000D01*
X602292Y330000D01*
X604086Y329673D01*
X605798Y328597D01*
X606954Y326939D01*
X607372Y324961D01*
X606986Y322976D01*
X606850Y322648D01*
X625150Y322648D01*
X625014Y322976D01*
X624630Y324758D01*
X624969Y326751D01*
X626059Y328454D01*
X627726Y329598D01*
X629708Y330000D01*
X632920Y330000D01*
X634751Y329658D01*
X636454Y328569D01*
X637598Y326901D01*
X638000Y324920D01*
X638000Y286104D01*
X637629Y284198D01*
X636512Y282512D01*
X631488Y277488D01*
X629877Y276402D01*
X627896Y276000D01*
X38082Y276000D01*
X38078Y276000D01*
X38009Y275991D01*
X38000Y275840D01*
X38000Y62201D01*
X38016Y61997D01*
X38113Y61887D01*
X73858Y26142D01*
X74014Y26009D01*
X74160Y26000D01*
X382799Y26000D01*
X383003Y26016D01*
X383113Y26113D01*
X431512Y74512D01*
X433123Y75598D01*
X435104Y76000D01*
X438152Y76000D01*
X439869Y75701D01*
X441598Y74652D01*
X441772Y74411D01*
X441799Y74454D01*
X443467Y75598D01*
X445448Y76000D01*
X448920Y76000D01*
X450751Y75658D01*
X452454Y74569D01*
X453598Y72901D01*
X454000Y70920D01*
X454000Y69482D01*
X453673Y67689D01*
X452597Y65977D01*
X450939Y64820D01*
X448961Y64402D01*
X446976Y64789D01*
X444848Y65670D01*
X444848Y32130D01*
X447601Y33270D01*
X449024Y33630D01*
X451036Y33433D01*
X452812Y32467D01*
X453787Y31240D01*
X453829Y31269D01*
X454008Y31006D01*
X454113Y30887D01*
X455858Y29142D01*
X456014Y29009D01*
X456160Y29000D01*
X529799Y29000D01*
X530003Y29016D01*
X530113Y29113D01*
X577512Y76512D01*
X579123Y77598D01*
X581104Y78000D01*
X596920Y78000D01*
X598751Y77658D01*
X600454Y76569D01*
X601598Y74901D01*
X602000Y72920D01*
X602000Y68768D01*
X601673Y66974D01*
X600597Y65263D01*
X598939Y64106D01*
X596961Y63688D01*
X594976Y64074D01*
X591848Y65370D01*
X591848Y31830D01*
X595015Y33142D01*
X596153Y33464D01*
X598173Y33381D01*
X600001Y32517D01*
X601347Y31008D01*
X601925Y29310D01*
X601930Y29311D01*
X601948Y29241D01*
X601998Y29094D01*
X602009Y29009D01*
X602160Y29000D01*
X682799Y29000D01*
X683003Y29016D01*
X683113Y29113D01*
X733512Y79512D01*
X735123Y80598D01*
X737104Y81000D01*
X749920Y81000D01*
X751751Y80658D01*
X753454Y79569D01*
X754598Y77901D01*
X755000Y75920D01*
X755000Y69185D01*
X754673Y67391D01*
X753597Y65680D01*
X751939Y64523D01*
X749961Y64105D01*
X747976Y64492D01*
X744648Y65870D01*
X744648Y32330D01*
X747049Y33325D01*
X749270Y35546D01*
X750807Y36599D01*
X752781Y37033D01*
X754769Y36662D01*
X756454Y35546D01*
X763858Y28142D01*
X764014Y28009D01*
X764160Y28000D01*
X826799Y28000D01*
X827003Y28016D01*
X827113Y28113D01*
X868858Y69858D01*
X868991Y70014D01*
X869000Y70160D01*
X869000Y585896D01*
X869371Y587802D01*
X870488Y589488D01*
X871512Y590512D01*
X873123Y591598D01*
X875104Y592000D01*
X893920Y592000D01*
X895751Y591658D01*
X897454Y590569D01*
X898598Y588901D01*
X899000Y586920D01*
X899000Y30104D01*
X898629Y28198D01*
X897512Y26512D01*
X878488Y7488D01*
X876877Y6402D01*
G37*
%LPC*%
G36*
X46048Y373048D02*
X53644Y373048D01*
X52325Y376231D01*
X49231Y379325D01*
X46048Y380644D01*
X46048Y373048D01*
G37*
G36*
X32356Y373048D02*
X39952Y373048D01*
X39952Y380644D01*
X36769Y379325D01*
X33675Y376231D01*
X32356Y373048D01*
G37*
G36*
X36769Y360675D02*
X39952Y359356D01*
X39952Y366952D01*
X32356Y366952D01*
X33675Y363769D01*
X36769Y360675D01*
G37*
G36*
X46048Y366952D02*
X46048Y359356D01*
X49231Y360675D01*
X52325Y363769D01*
X53644Y366952D01*
X46048Y366952D01*
G37*
G36*
X619048Y316552D02*
X619048Y310450D01*
X621449Y311445D01*
X624155Y314151D01*
X625150Y316552D01*
X619048Y316552D01*
G37*
G36*
X610551Y311445D02*
X612952Y310450D01*
X612952Y316552D01*
X606850Y316552D01*
X607845Y314151D01*
X610551Y311445D01*
G37*
G36*
X390548Y316552D02*
X390548Y310450D01*
X392949Y311445D01*
X395655Y314151D01*
X396650Y316552D01*
X390548Y316552D01*
G37*
G36*
X382051Y311445D02*
X384452Y310450D01*
X384452Y316552D01*
X378350Y316552D01*
X379345Y314151D01*
X382051Y311445D01*
G37*
G36*
X136348Y316552D02*
X136348Y310450D01*
X138749Y311445D01*
X141455Y314151D01*
X142450Y316552D01*
X136348Y316552D01*
G37*
G36*
X127851Y311445D02*
X130252Y310450D01*
X130252Y316552D01*
X124150Y316552D01*
X125145Y314151D01*
X127851Y311445D01*
G37*
G36*
X731980Y52148D02*
X738552Y52148D01*
X738552Y65870D01*
X736151Y64875D01*
X733445Y62169D01*
X731980Y58634D01*
X731980Y52148D01*
G37*
G36*
X432180Y51948D02*
X438752Y51948D01*
X438752Y65670D01*
X436351Y64675D01*
X433645Y61969D01*
X432180Y58434D01*
X432180Y51948D01*
G37*
G36*
X579180Y51648D02*
X585752Y51648D01*
X585752Y65370D01*
X583351Y64375D01*
X580645Y61669D01*
X579180Y58134D01*
X579180Y51648D01*
G37*
G36*
X736151Y33325D02*
X738552Y32330D01*
X738552Y46052D01*
X731980Y46052D01*
X731980Y39566D01*
X733445Y36031D01*
X736151Y33325D01*
G37*
G36*
X436351Y33125D02*
X438752Y32130D01*
X438752Y45852D01*
X432180Y45852D01*
X432180Y39366D01*
X433645Y35831D01*
X436351Y33125D01*
G37*
G36*
X583351Y32825D02*
X585752Y31830D01*
X585752Y45552D01*
X579180Y45552D01*
X579180Y39066D01*
X580645Y35531D01*
X583351Y32825D01*
G37*
%LPD*%
G36*
X659779Y152724D02*
X656212Y152000D01*
X253788Y152000D01*
X250356Y152668D01*
X247322Y154678D01*
X244678Y157322D01*
X242724Y160221D01*
X242000Y163788D01*
X242000Y166833D01*
X242589Y170061D01*
X244525Y173142D01*
X247510Y175224D01*
X251071Y175977D01*
X252183Y175760D01*
X253368Y175760D01*
X253368Y210240D01*
X252420Y210240D01*
X251435Y210028D01*
X247848Y210638D01*
X244782Y212599D01*
X242724Y215601D01*
X242000Y219167D01*
X242000Y223856D01*
X242615Y227152D01*
X244576Y230218D01*
X247578Y232276D01*
X251144Y233000D01*
X277856Y233000D01*
X281152Y232385D01*
X284218Y230424D01*
X286276Y227422D01*
X287000Y223856D01*
X287000Y176169D01*
X287005Y176045D01*
X287009Y176010D01*
X287214Y176000D01*
X362831Y176000D01*
X362955Y176005D01*
X362996Y176010D01*
X363103Y176081D01*
X363162Y176099D01*
X363372Y176212D01*
X363394Y176170D01*
X368106Y177619D01*
X371678Y176923D01*
X374368Y175809D01*
X374368Y210240D01*
X373420Y210240D01*
X372435Y210028D01*
X368848Y210638D01*
X365782Y212599D01*
X363724Y215601D01*
X363000Y219167D01*
X363000Y222856D01*
X363615Y226152D01*
X365576Y229218D01*
X368578Y231276D01*
X372144Y232000D01*
X403856Y232000D01*
X407152Y231385D01*
X410218Y229424D01*
X412276Y226422D01*
X413000Y222856D01*
X413000Y173169D01*
X413005Y173045D01*
X413009Y173010D01*
X413214Y173000D01*
X500701Y173000D01*
X501007Y173020D01*
X501151Y173151D01*
X501789Y173789D01*
X501854Y173863D01*
X501888Y173888D01*
X502000Y174000D01*
X502018Y173982D01*
X505095Y176225D01*
X508655Y176977D01*
X512228Y176281D01*
X513368Y175809D01*
X513368Y210240D01*
X512420Y210240D01*
X511435Y210028D01*
X507848Y210638D01*
X504782Y212599D01*
X502724Y215601D01*
X502000Y219167D01*
X502000Y221856D01*
X502615Y225152D01*
X504576Y228218D01*
X507578Y230276D01*
X511144Y231000D01*
X532212Y231000D01*
X535644Y230332D01*
X538678Y228322D01*
X590789Y176211D01*
X591019Y176009D01*
X591214Y176000D01*
X633831Y176000D01*
X633955Y176005D01*
X633997Y176010D01*
X634372Y176212D01*
X634458Y176052D01*
X638723Y177363D01*
X642296Y176668D01*
X644368Y175809D01*
X644368Y210240D01*
X643144Y210240D01*
X639848Y210855D01*
X636782Y212816D01*
X634724Y215818D01*
X634000Y219384D01*
X634000Y222212D01*
X634668Y225644D01*
X636678Y228678D01*
X647789Y239789D01*
X647991Y240019D01*
X648000Y240214D01*
X648000Y459831D01*
X647995Y459955D01*
X647991Y459990D01*
X647786Y460000D01*
X634764Y460000D01*
X631468Y460615D01*
X628402Y462576D01*
X626344Y465578D01*
X625620Y469144D01*
X625620Y469968D01*
X606380Y469968D01*
X606380Y469144D01*
X605765Y465848D01*
X603804Y462782D01*
X600802Y460724D01*
X597236Y460000D01*
X591144Y460000D01*
X587848Y460615D01*
X584782Y462576D01*
X582724Y465578D01*
X582000Y469144D01*
X582000Y476856D01*
X582615Y480152D01*
X584576Y483218D01*
X587578Y485276D01*
X591144Y486000D01*
X597701Y486000D01*
X600930Y485411D01*
X604011Y483475D01*
X606093Y480490D01*
X606845Y476929D01*
X606380Y474541D01*
X606380Y474032D01*
X625620Y474032D01*
X625620Y474427D01*
X625159Y476565D01*
X625769Y480152D01*
X627731Y483218D01*
X630732Y485276D01*
X634299Y486000D01*
X645746Y486000D01*
X645975Y486013D01*
X645849Y486151D01*
X604211Y527789D01*
X603981Y527991D01*
X603786Y528000D01*
X417788Y528000D01*
X414356Y528668D01*
X411322Y530678D01*
X404678Y537322D01*
X402724Y540221D01*
X402000Y543788D01*
X402000Y553212D01*
X402668Y556644D01*
X404678Y559678D01*
X412322Y567322D01*
X415221Y569276D01*
X418788Y570000D01*
X665212Y570000D01*
X668644Y569332D01*
X671678Y567322D01*
X689322Y549678D01*
X691276Y546779D01*
X692000Y543212D01*
X692000Y187788D01*
X691332Y184356D01*
X689322Y181322D01*
X662678Y154678D01*
X659779Y152724D01*
G37*
%LPC*%
G36*
X257432Y195032D02*
X265020Y195032D01*
X265020Y202534D01*
X263555Y206069D01*
X260849Y208775D01*
X257432Y210191D01*
X257432Y195032D01*
G37*
G36*
X378432Y195032D02*
X386020Y195032D01*
X386020Y202534D01*
X384555Y206069D01*
X381849Y208775D01*
X378432Y210191D01*
X378432Y195032D01*
G37*
G36*
X517432Y195032D02*
X525020Y195032D01*
X525020Y202534D01*
X523555Y206069D01*
X520849Y208775D01*
X517432Y210191D01*
X517432Y195032D01*
G37*
G36*
X648432Y195032D02*
X656020Y195032D01*
X656020Y202534D01*
X654555Y206069D01*
X651849Y208775D01*
X648432Y210191D01*
X648432Y195032D01*
G37*
G36*
X648432Y190968D02*
X648432Y175809D01*
X651849Y177225D01*
X654555Y179931D01*
X656020Y183466D01*
X656020Y190968D01*
X648432Y190968D01*
G37*
G36*
X517432Y190968D02*
X517432Y175809D01*
X520849Y177225D01*
X523555Y179931D01*
X525020Y183466D01*
X525020Y190968D01*
X517432Y190968D01*
G37*
G36*
X378432Y190968D02*
X378432Y175809D01*
X381849Y177225D01*
X384555Y179931D01*
X386020Y183466D01*
X386020Y190968D01*
X378432Y190968D01*
G37*
G36*
X257432Y190968D02*
X257432Y175809D01*
X260849Y177225D01*
X263555Y179931D01*
X265020Y183466D01*
X265020Y190968D01*
X257432Y190968D01*
G37*
%LPD*%
G36*
X511757Y856352D02*
X511390Y856362D01*
X511035Y856389D01*
X510692Y856434D01*
X510360Y856496D01*
X510039Y856577D01*
X509731Y856675D01*
X509434Y856791D01*
X509148Y856924D01*
X508874Y857075D01*
X508612Y857244D01*
X508362Y857431D01*
X508123Y857635D01*
X507895Y857857D01*
X507680Y858097D01*
X507476Y858354D01*
X507283Y858629D01*
X507103Y858922D01*
X506934Y859230D01*
X506776Y859555D01*
X506631Y859896D01*
X506497Y860253D01*
X506375Y860627D01*
X506264Y861016D01*
X506166Y861422D01*
X506079Y861845D01*
X506004Y862283D01*
X505940Y862738D01*
X505888Y863209D01*
X505848Y863697D01*
X505820Y864201D01*
X505803Y864721D01*
X505798Y865257D01*
X505823Y866335D01*
X505852Y866848D01*
X505893Y867344D01*
X505945Y867822D01*
X506008Y868282D01*
X506083Y868726D01*
X506168Y869151D01*
X506266Y869560D01*
X506374Y869950D01*
X506494Y870324D01*
X506625Y870679D01*
X506768Y871018D01*
X506922Y871339D01*
X507087Y871642D01*
X507264Y871928D01*
X507452Y872197D01*
X507654Y872448D01*
X507869Y872682D01*
X508098Y872898D01*
X508339Y873097D01*
X508594Y873279D01*
X508861Y873443D01*
X509142Y873590D01*
X509436Y873720D01*
X509743Y873832D01*
X510063Y873927D01*
X510397Y874004D01*
X510743Y874065D01*
X511103Y874107D01*
X511476Y874133D01*
X511862Y874141D01*
X512237Y874131D01*
X512601Y874104D01*
X512951Y874060D01*
X513289Y873998D01*
X513614Y873918D01*
X513927Y873821D01*
X514228Y873707D01*
X514515Y873575D01*
X514791Y873425D01*
X515053Y873258D01*
X515304Y873073D01*
X515541Y872871D01*
X515766Y872652D01*
X515979Y872415D01*
X516179Y872160D01*
X516366Y871888D01*
X516542Y871598D01*
X516706Y871292D01*
X516859Y870969D01*
X517000Y870629D01*
X517130Y870272D01*
X517249Y869899D01*
X517356Y869508D01*
X517452Y869101D01*
X517536Y868677D01*
X517609Y868236D01*
X517671Y867778D01*
X517721Y867303D01*
X517788Y866303D01*
X517809Y865236D01*
X517802Y864703D01*
X517783Y864185D01*
X517752Y863684D01*
X517710Y863199D01*
X517655Y862730D01*
X517589Y862276D01*
X517510Y861839D01*
X517420Y861418D01*
X517318Y861013D01*
X517204Y860624D01*
X517078Y860251D01*
X516940Y859894D01*
X516790Y859553D01*
X516629Y859228D01*
X516455Y858919D01*
X516270Y858626D01*
X516073Y858350D01*
X515864Y858092D01*
X515645Y857852D01*
X515413Y857629D01*
X515171Y857425D01*
X514917Y857238D01*
X514652Y857069D01*
X514376Y856918D01*
X514088Y856785D01*
X513789Y856669D01*
X513479Y856572D01*
X513157Y856492D01*
X512824Y856430D01*
X512480Y856387D01*
X512124Y856360D01*
X511757Y856352D01*
G37*
%LPC*%
G36*
X511785Y858155D02*
X512025Y858162D01*
X512256Y858182D01*
X512480Y858215D01*
X512695Y858263D01*
X512903Y858324D01*
X513102Y858398D01*
X513293Y858486D01*
X513476Y858588D01*
X513817Y858832D01*
X514126Y859131D01*
X514402Y859485D01*
X514646Y859893D01*
X514860Y860357D01*
X515045Y860879D01*
X515202Y861460D01*
X515331Y862100D01*
X515432Y862797D01*
X515504Y863553D01*
X515548Y864367D01*
X515564Y865240D01*
X515552Y866143D01*
X515513Y866982D01*
X515446Y867757D01*
X515353Y868467D01*
X515233Y869113D01*
X515085Y869694D01*
X514910Y870211D01*
X514708Y870664D01*
X514475Y871058D01*
X514207Y871400D01*
X513903Y871689D01*
X513565Y871926D01*
X513191Y872111D01*
X512991Y872183D01*
X512782Y872243D01*
X512564Y872289D01*
X512338Y872322D01*
X512103Y872343D01*
X511859Y872349D01*
X511609Y872343D01*
X511368Y872324D01*
X511135Y872293D01*
X510912Y872248D01*
X510698Y872190D01*
X510492Y872119D01*
X510108Y871938D01*
X509760Y871706D01*
X509448Y871422D01*
X509171Y871086D01*
X508930Y870698D01*
X508721Y870251D01*
X508539Y869738D01*
X508385Y869157D01*
X508259Y868510D01*
X508161Y867796D01*
X508090Y867015D01*
X508047Y866167D01*
X508031Y865253D01*
X508044Y864364D01*
X508084Y863536D01*
X508153Y862770D01*
X508251Y862066D01*
X508377Y861423D01*
X508531Y860842D01*
X508713Y860323D01*
X508923Y859866D01*
X509165Y859466D01*
X509439Y859119D01*
X509747Y858825D01*
X510088Y858585D01*
X510462Y858398D01*
X510662Y858324D01*
X510870Y858264D01*
X511086Y858217D01*
X511311Y858183D01*
X511544Y858163D01*
X511785Y858155D01*
G37*
%LPD*%
G36*
X462453Y856438D02*
X461959Y856452D01*
X461491Y856493D01*
X461048Y856561D01*
X460630Y856655D01*
X460237Y856775D01*
X459869Y856922D01*
X459527Y857096D01*
X459210Y857296D01*
X458916Y857527D01*
X458643Y857789D01*
X458393Y858085D01*
X458164Y858413D01*
X457957Y858774D01*
X457772Y859168D01*
X457608Y859594D01*
X457466Y860054D01*
X459577Y860381D01*
X459665Y860120D01*
X459766Y859875D01*
X459880Y859647D01*
X460006Y859436D01*
X460145Y859242D01*
X460296Y859064D01*
X460459Y858904D01*
X460635Y858760D01*
X460824Y858633D01*
X461025Y858523D01*
X461238Y858430D01*
X461464Y858354D01*
X461703Y858294D01*
X461954Y858252D01*
X462217Y858226D01*
X462493Y858217D01*
X462727Y858223D01*
X462955Y858244D01*
X463176Y858278D01*
X463390Y858326D01*
X463598Y858388D01*
X463799Y858463D01*
X464180Y858656D01*
X464536Y858903D01*
X464864Y859207D01*
X465165Y859565D01*
X465440Y859978D01*
X465686Y860443D01*
X465901Y860955D01*
X466085Y861514D01*
X466238Y862121D01*
X466360Y862774D01*
X466452Y863475D01*
X466512Y864223D01*
X466541Y865019D01*
X466407Y864750D01*
X466251Y864494D01*
X466073Y864253D01*
X465874Y864025D01*
X465652Y863810D01*
X465409Y863609D01*
X465144Y863422D01*
X464857Y863249D01*
X464556Y863093D01*
X464247Y862957D01*
X463931Y862843D01*
X463608Y862750D01*
X463278Y862677D01*
X462940Y862625D01*
X462595Y862595D01*
X462243Y862585D01*
X461955Y862592D01*
X461675Y862611D01*
X461402Y862642D01*
X461136Y862686D01*
X460626Y862812D01*
X460146Y862987D01*
X459694Y863212D01*
X459272Y863487D01*
X458880Y863812D01*
X458516Y864186D01*
X458189Y864602D01*
X457906Y865050D01*
X457666Y865530D01*
X457470Y866044D01*
X457318Y866589D01*
X457210Y867167D01*
X457146Y867778D01*
X457125Y868421D01*
X457131Y868755D01*
X457150Y869081D01*
X457222Y869704D01*
X457342Y870291D01*
X457510Y870842D01*
X457724Y871356D01*
X457987Y871834D01*
X458296Y872276D01*
X458654Y872682D01*
X459053Y873045D01*
X459490Y873359D01*
X459964Y873625D01*
X460474Y873842D01*
X461022Y874011D01*
X461607Y874131D01*
X461914Y874173D01*
X462230Y874203D01*
X462555Y874221D01*
X462889Y874226D01*
X463244Y874217D01*
X463588Y874192D01*
X463921Y874149D01*
X464243Y874090D01*
X464554Y874015D01*
X464854Y873922D01*
X465143Y873814D01*
X465421Y873688D01*
X465689Y873546D01*
X465945Y873387D01*
X466190Y873211D01*
X466425Y873019D01*
X466648Y872810D01*
X466860Y872585D01*
X467062Y872343D01*
X467253Y872084D01*
X467432Y871808D01*
X467599Y871516D01*
X467755Y871207D01*
X467900Y870881D01*
X468033Y870539D01*
X468154Y870179D01*
X468263Y869803D01*
X468361Y869411D01*
X468447Y869001D01*
X468522Y868575D01*
X468585Y868132D01*
X468636Y867672D01*
X468676Y867195D01*
X468704Y866702D01*
X468726Y865665D01*
X468718Y865116D01*
X468698Y864584D01*
X468666Y864068D01*
X468621Y863567D01*
X468563Y863083D01*
X468492Y862615D01*
X468409Y862163D01*
X468313Y861728D01*
X468204Y861308D01*
X468082Y860905D01*
X467948Y860517D01*
X467802Y860146D01*
X467642Y859791D01*
X467470Y859452D01*
X467286Y859129D01*
X467088Y858822D01*
X466879Y858533D01*
X466659Y858262D01*
X466429Y858010D01*
X466187Y857777D01*
X465935Y857563D01*
X465673Y857367D01*
X465399Y857190D01*
X465115Y857032D01*
X464820Y856892D01*
X464514Y856771D01*
X464197Y856669D01*
X463870Y856585D01*
X463532Y856520D01*
X463183Y856474D01*
X462823Y856447D01*
X462453Y856438D01*
G37*
%LPC*%
G36*
X462773Y864326D02*
X463011Y864332D01*
X463243Y864352D01*
X463472Y864386D01*
X463697Y864433D01*
X464133Y864569D01*
X464553Y864758D01*
X464943Y864998D01*
X465289Y865283D01*
X465591Y865613D01*
X465849Y865989D01*
X465961Y866192D01*
X466057Y866401D01*
X466138Y866618D01*
X466205Y866841D01*
X466257Y867071D01*
X466295Y867309D01*
X466317Y867553D01*
X466325Y867804D01*
X466311Y868313D01*
X466267Y868796D01*
X466193Y869254D01*
X466089Y869686D01*
X465955Y870093D01*
X465791Y870474D01*
X465598Y870830D01*
X465374Y871161D01*
X465125Y871459D01*
X464856Y871717D01*
X464566Y871936D01*
X464256Y872115D01*
X463926Y872255D01*
X463575Y872354D01*
X463204Y872415D01*
X462812Y872435D01*
X462424Y872419D01*
X462057Y872369D01*
X461711Y872284D01*
X461385Y872166D01*
X461081Y872014D01*
X460798Y871828D01*
X460536Y871608D01*
X460295Y871354D01*
X460079Y871071D01*
X459892Y870764D01*
X459733Y870433D01*
X459603Y870078D01*
X459502Y869698D01*
X459429Y869295D01*
X459385Y868868D01*
X459370Y868417D01*
X459384Y867957D01*
X459426Y867522D01*
X459497Y867111D01*
X459597Y866725D01*
X459726Y866364D01*
X459883Y866027D01*
X460070Y865716D01*
X460285Y865428D01*
X460525Y865171D01*
X460785Y864947D01*
X461065Y864758D01*
X461366Y864603D01*
X461687Y864482D01*
X462029Y864396D01*
X462391Y864344D01*
X462773Y864326D01*
G37*
%LPD*%
G36*
X497617Y856377D02*
X497027Y856394D01*
X496467Y856445D01*
X495936Y856528D01*
X495434Y856644D01*
X494961Y856794D01*
X494517Y856976D01*
X494103Y857191D01*
X493717Y857439D01*
X493364Y857718D01*
X493044Y858026D01*
X492759Y858364D01*
X492508Y858732D01*
X492291Y859129D01*
X492109Y859555D01*
X491960Y860011D01*
X491846Y860497D01*
X494079Y860750D01*
X494174Y860440D01*
X494287Y860149D01*
X494417Y859878D01*
X494564Y859628D01*
X494728Y859397D01*
X494909Y859186D01*
X495108Y858996D01*
X495324Y858825D01*
X495557Y858675D01*
X495807Y858544D01*
X496074Y858433D01*
X496359Y858343D01*
X496661Y858272D01*
X496980Y858221D01*
X497316Y858191D01*
X497669Y858180D01*
X498102Y858196D01*
X498510Y858246D01*
X498895Y858329D01*
X499255Y858446D01*
X499591Y858596D01*
X499904Y858780D01*
X500192Y858998D01*
X500456Y859249D01*
X500692Y859529D01*
X500897Y859835D01*
X501070Y860166D01*
X501212Y860522D01*
X501323Y860903D01*
X501402Y861309D01*
X501450Y861741D01*
X501467Y862197D01*
X501452Y862596D01*
X501405Y862974D01*
X501326Y863333D01*
X501216Y863673D01*
X501075Y863993D01*
X500901Y864294D01*
X500696Y864575D01*
X500459Y864837D01*
X500196Y865073D01*
X499910Y865278D01*
X499602Y865451D01*
X499272Y865593D01*
X498920Y865704D01*
X498546Y865783D01*
X498150Y865831D01*
X497731Y865848D01*
X497291Y865831D01*
X496866Y865778D01*
X496457Y865691D01*
X496062Y865568D01*
X495676Y865403D01*
X495289Y865189D01*
X494902Y864926D01*
X494515Y864614D01*
X492356Y864618D01*
X492949Y873916D01*
X502775Y873899D01*
X502772Y872022D01*
X494957Y872035D01*
X494617Y866552D01*
X494987Y866810D01*
X495379Y867034D01*
X495793Y867223D01*
X496228Y867378D01*
X496686Y867498D01*
X497165Y867583D01*
X497666Y867634D01*
X498188Y867650D01*
X498810Y867626D01*
X499399Y867554D01*
X499956Y867437D01*
X500480Y867272D01*
X500972Y867061D01*
X501432Y866803D01*
X501858Y866498D01*
X502253Y866146D01*
X502607Y865757D01*
X502914Y865340D01*
X503174Y864895D01*
X503386Y864421D01*
X503551Y863919D01*
X503668Y863388D01*
X503738Y862829D01*
X503761Y862242D01*
X503754Y861905D01*
X503734Y861577D01*
X503702Y861258D01*
X503657Y860948D01*
X503600Y860647D01*
X503529Y860355D01*
X503446Y860072D01*
X503350Y859799D01*
X503121Y859279D01*
X502841Y858796D01*
X502510Y858349D01*
X502128Y857939D01*
X501701Y857572D01*
X501235Y857254D01*
X500730Y856985D01*
X500186Y856765D01*
X499603Y856594D01*
X499296Y856527D01*
X498980Y856473D01*
X498654Y856430D01*
X498318Y856400D01*
X497972Y856382D01*
X497617Y856377D01*
G37*
G36*
X476680Y856659D02*
X474373Y856663D01*
X474397Y857496D01*
X474464Y858341D01*
X474575Y859196D01*
X474730Y860062D01*
X474929Y860939D01*
X475172Y861827D01*
X475459Y862725D01*
X475790Y863635D01*
X476172Y864567D01*
X476614Y865534D01*
X477114Y866535D01*
X477673Y867571D01*
X478290Y868641D01*
X478967Y869747D01*
X479703Y870886D01*
X480497Y872061D01*
X471211Y872077D01*
X471214Y873954D01*
X482635Y873934D01*
X482632Y872143D01*
X481401Y870230D01*
X480366Y868537D01*
X479525Y867062D01*
X479178Y866407D01*
X478879Y865807D01*
X478366Y864664D01*
X478134Y864096D01*
X477920Y863530D01*
X477723Y862965D01*
X477543Y862402D01*
X477380Y861842D01*
X477234Y861283D01*
X477105Y860722D01*
X476993Y860157D01*
X476898Y859586D01*
X476820Y859011D01*
X476760Y858430D01*
X476716Y857845D01*
X476689Y857254D01*
X476680Y856659D01*
G37*
G36*
X488551Y856638D02*
X486158Y856642D01*
X486163Y859329D01*
X488555Y859325D01*
X488551Y856638D01*
G37*
G36*
X-164394Y386536D02*
X-165472Y386558D01*
X-165985Y386587D01*
X-166481Y386627D01*
X-166959Y386678D01*
X-167420Y386740D01*
X-167863Y386814D01*
X-168289Y386899D01*
X-168697Y386996D01*
X-169088Y387104D01*
X-169462Y387223D01*
X-169818Y387353D01*
X-170157Y387495D01*
X-170478Y387649D01*
X-170782Y387813D01*
X-171068Y387989D01*
X-171337Y388178D01*
X-171588Y388379D01*
X-171822Y388594D01*
X-172039Y388822D01*
X-172239Y389063D01*
X-172421Y389317D01*
X-172586Y389584D01*
X-172733Y389865D01*
X-172863Y390159D01*
X-172976Y390466D01*
X-173071Y390786D01*
X-173150Y391119D01*
X-173210Y391465D01*
X-173254Y391825D01*
X-173280Y392198D01*
X-173288Y392584D01*
X-173280Y392959D01*
X-173253Y393323D01*
X-173209Y393673D01*
X-173148Y394011D01*
X-173069Y394337D01*
X-172973Y394650D01*
X-172859Y394950D01*
X-172727Y395238D01*
X-172578Y395514D01*
X-172411Y395777D01*
X-172227Y396027D01*
X-172025Y396265D01*
X-171806Y396491D01*
X-171569Y396704D01*
X-171315Y396904D01*
X-171043Y397092D01*
X-170754Y397268D01*
X-170448Y397433D01*
X-170125Y397586D01*
X-169786Y397728D01*
X-169429Y397859D01*
X-169056Y397978D01*
X-168666Y398086D01*
X-168258Y398183D01*
X-167834Y398268D01*
X-167394Y398342D01*
X-166936Y398404D01*
X-166461Y398455D01*
X-165461Y398523D01*
X-164394Y398546D01*
X-163861Y398540D01*
X-163343Y398522D01*
X-162842Y398492D01*
X-162357Y398451D01*
X-161887Y398397D01*
X-161434Y398331D01*
X-160997Y398254D01*
X-160576Y398164D01*
X-160170Y398063D01*
X-159781Y397950D01*
X-159408Y397824D01*
X-159050Y397687D01*
X-158709Y397538D01*
X-158384Y397377D01*
X-158075Y397204D01*
X-157781Y397019D01*
X-157505Y396822D01*
X-157247Y396614D01*
X-157006Y396395D01*
X-156783Y396164D01*
X-156578Y395922D01*
X-156391Y395669D01*
X-156222Y395404D01*
X-156070Y395128D01*
X-155936Y394841D01*
X-155821Y394542D01*
X-155723Y394232D01*
X-155642Y393910D01*
X-155580Y393577D01*
X-155535Y393233D01*
X-155509Y392877D01*
X-155500Y392510D01*
X-155509Y392143D01*
X-155535Y391788D01*
X-155579Y391445D01*
X-155642Y391112D01*
X-155721Y390792D01*
X-155819Y390483D01*
X-155934Y390186D01*
X-156067Y389900D01*
X-156218Y389626D01*
X-156386Y389364D01*
X-156572Y389113D01*
X-156776Y388874D01*
X-156998Y388646D01*
X-157237Y388430D01*
X-157494Y388225D01*
X-157769Y388032D01*
X-158061Y387851D01*
X-158369Y387682D01*
X-158694Y387524D01*
X-159034Y387378D01*
X-159391Y387243D01*
X-159765Y387120D01*
X-160154Y387009D01*
X-160560Y386910D01*
X-160982Y386822D01*
X-161421Y386746D01*
X-161876Y386682D01*
X-162347Y386629D01*
X-162834Y386588D01*
X-163338Y386559D01*
X-163858Y386542D01*
X-164394Y386536D01*
G37*
%LPC*%
G36*
X-164394Y388769D02*
X-163505Y388783D01*
X-162677Y388825D01*
X-161911Y388895D01*
X-161207Y388994D01*
X-160565Y389121D01*
X-159984Y389276D01*
X-159465Y389459D01*
X-159008Y389670D01*
X-158609Y389912D01*
X-158262Y390187D01*
X-157969Y390496D01*
X-157729Y390837D01*
X-157543Y391212D01*
X-157470Y391412D01*
X-157410Y391620D01*
X-157363Y391836D01*
X-157330Y392061D01*
X-157310Y392294D01*
X-157303Y392535D01*
X-157310Y392775D01*
X-157330Y393006D01*
X-157364Y393230D01*
X-157412Y393445D01*
X-157473Y393652D01*
X-157548Y393851D01*
X-157636Y394042D01*
X-157739Y394225D01*
X-157984Y394566D01*
X-158283Y394874D01*
X-158637Y395150D01*
X-159045Y395393D01*
X-159510Y395606D01*
X-160033Y395790D01*
X-160614Y395946D01*
X-161253Y396074D01*
X-161951Y396173D01*
X-162707Y396244D01*
X-163521Y396287D01*
X-164394Y396301D01*
X-165297Y396288D01*
X-166136Y396247D01*
X-166910Y396179D01*
X-167620Y396085D01*
X-168266Y395963D01*
X-168847Y395815D01*
X-169364Y395639D01*
X-169816Y395436D01*
X-170210Y395202D01*
X-170552Y394934D01*
X-170841Y394630D01*
X-171077Y394291D01*
X-171261Y393917D01*
X-171333Y393716D01*
X-171392Y393507D01*
X-171438Y393290D01*
X-171471Y393063D01*
X-171491Y392828D01*
X-171497Y392584D01*
X-171491Y392334D01*
X-171471Y392093D01*
X-171439Y391861D01*
X-171394Y391637D01*
X-171335Y391423D01*
X-171264Y391218D01*
X-171083Y390834D01*
X-170850Y390486D01*
X-170566Y390174D01*
X-170229Y389898D01*
X-169841Y389658D01*
X-169394Y389449D01*
X-168879Y389269D01*
X-168299Y389116D01*
X-167651Y388991D01*
X-166937Y388894D01*
X-166156Y388824D01*
X-165308Y388782D01*
X-164394Y388769D01*
G37*
%LPD*%
G36*
X-160186Y351605D02*
X-160395Y353887D01*
X-160023Y353953D01*
X-159676Y354042D01*
X-159352Y354154D01*
X-159053Y354288D01*
X-158777Y354444D01*
X-158526Y354623D01*
X-158298Y354825D01*
X-158094Y355049D01*
X-157915Y355296D01*
X-157759Y355565D01*
X-157627Y355857D01*
X-157519Y356171D01*
X-157435Y356508D01*
X-157376Y356867D01*
X-157340Y357249D01*
X-157328Y357653D01*
X-157340Y358059D01*
X-157379Y358442D01*
X-157443Y358804D01*
X-157533Y359142D01*
X-157649Y359458D01*
X-157790Y359752D01*
X-157957Y360023D01*
X-158150Y360272D01*
X-158367Y360495D01*
X-158610Y360688D01*
X-158878Y360852D01*
X-159171Y360985D01*
X-159488Y361089D01*
X-159831Y361164D01*
X-160198Y361208D01*
X-160591Y361223D01*
X-160934Y361206D01*
X-161258Y361155D01*
X-161562Y361070D01*
X-161847Y360952D01*
X-162112Y360799D01*
X-162359Y360612D01*
X-162586Y360392D01*
X-162793Y360137D01*
X-162978Y359851D01*
X-163139Y359534D01*
X-163275Y359188D01*
X-163386Y358811D01*
X-163473Y358404D01*
X-163535Y357967D01*
X-163572Y357500D01*
X-163584Y357003D01*
X-163584Y355752D01*
X-165498Y355752D01*
X-165498Y356954D01*
X-165510Y357395D01*
X-165548Y357811D01*
X-165609Y358201D01*
X-165696Y358566D01*
X-165807Y358905D01*
X-165943Y359218D01*
X-166104Y359507D01*
X-166289Y359769D01*
X-166497Y360004D01*
X-166723Y360207D01*
X-166968Y360379D01*
X-167233Y360519D01*
X-167516Y360629D01*
X-167818Y360707D01*
X-168139Y360754D01*
X-168479Y360769D01*
X-168817Y360756D01*
X-169136Y360718D01*
X-169437Y360654D01*
X-169720Y360565D01*
X-169984Y360451D01*
X-170231Y360310D01*
X-170459Y360145D01*
X-170669Y359953D01*
X-170857Y359737D01*
X-171021Y359496D01*
X-171159Y359230D01*
X-171272Y358940D01*
X-171360Y358624D01*
X-171422Y358285D01*
X-171460Y357920D01*
X-171473Y357530D01*
X-171461Y357174D01*
X-171426Y356835D01*
X-171367Y356514D01*
X-171286Y356210D01*
X-171180Y355924D01*
X-171052Y355655D01*
X-170900Y355403D01*
X-170724Y355169D01*
X-170528Y354955D01*
X-170312Y354765D01*
X-170077Y354599D01*
X-169823Y354456D01*
X-169549Y354336D01*
X-169257Y354241D01*
X-168945Y354168D01*
X-168614Y354120D01*
X-168786Y351899D01*
X-169302Y351981D01*
X-169789Y352101D01*
X-170247Y352262D01*
X-170675Y352462D01*
X-171075Y352702D01*
X-171445Y352982D01*
X-171786Y353301D01*
X-172098Y353660D01*
X-172377Y354052D01*
X-172619Y354471D01*
X-172823Y354918D01*
X-172991Y355391D01*
X-173121Y355892D01*
X-173214Y356419D01*
X-173270Y356973D01*
X-173288Y357555D01*
X-173269Y358187D01*
X-173213Y358783D01*
X-173118Y359343D01*
X-172986Y359866D01*
X-172816Y360353D01*
X-172609Y360804D01*
X-172363Y361219D01*
X-172080Y361597D01*
X-171763Y361935D01*
X-171416Y362228D01*
X-171040Y362476D01*
X-170634Y362678D01*
X-170198Y362836D01*
X-169733Y362949D01*
X-169237Y363016D01*
X-168712Y363039D01*
X-168308Y363024D01*
X-167923Y362981D01*
X-167557Y362909D01*
X-167211Y362807D01*
X-166884Y362677D01*
X-166577Y362518D01*
X-166288Y362330D01*
X-166020Y362113D01*
X-165771Y361868D01*
X-165543Y361597D01*
X-165336Y361300D01*
X-165150Y360976D01*
X-164985Y360626D01*
X-164841Y360250D01*
X-164717Y359848D01*
X-164615Y359420D01*
X-164566Y359420D01*
X-164500Y359891D01*
X-164406Y360335D01*
X-164285Y360753D01*
X-164136Y361143D01*
X-163960Y361507D01*
X-163756Y361844D01*
X-163524Y362154D01*
X-163265Y362438D01*
X-162984Y362691D01*
X-162684Y362910D01*
X-162367Y363096D01*
X-162032Y363247D01*
X-161680Y363365D01*
X-161310Y363450D01*
X-160923Y363500D01*
X-160517Y363517D01*
X-160222Y363511D01*
X-159936Y363493D01*
X-159389Y363422D01*
X-158875Y363303D01*
X-158395Y363137D01*
X-157949Y362923D01*
X-157536Y362662D01*
X-157157Y362353D01*
X-156812Y361996D01*
X-156505Y361595D01*
X-156238Y361154D01*
X-156012Y360672D01*
X-155828Y360150D01*
X-155684Y359586D01*
X-155582Y358983D01*
X-155520Y358338D01*
X-155500Y357653D01*
X-155518Y357013D01*
X-155574Y356407D01*
X-155666Y355833D01*
X-155796Y355293D01*
X-155962Y354786D01*
X-156166Y354312D01*
X-156406Y353871D01*
X-156684Y353464D01*
X-156997Y353092D01*
X-157346Y352761D01*
X-157731Y352469D01*
X-158151Y352217D01*
X-158607Y352004D01*
X-159098Y351832D01*
X-159624Y351698D01*
X-160186Y351605D01*
G37*
G36*
X-171154Y337967D02*
X-173031Y337967D01*
X-173031Y349389D01*
X-171240Y349389D01*
X-169325Y348161D01*
X-167630Y347129D01*
X-166154Y346291D01*
X-165498Y345945D01*
X-164897Y345647D01*
X-163754Y345135D01*
X-163185Y344905D01*
X-162618Y344692D01*
X-162053Y344496D01*
X-161490Y344317D01*
X-160929Y344154D01*
X-160370Y344009D01*
X-159809Y343881D01*
X-159244Y343771D01*
X-158673Y343677D01*
X-158097Y343600D01*
X-157517Y343540D01*
X-156931Y343498D01*
X-156341Y343472D01*
X-155745Y343464D01*
X-155745Y341157D01*
X-156579Y341179D01*
X-157423Y341245D01*
X-158278Y341355D01*
X-159145Y341508D01*
X-160022Y341706D01*
X-160910Y341947D01*
X-161809Y342233D01*
X-162719Y342562D01*
X-163652Y342942D01*
X-164620Y343382D01*
X-165622Y343880D01*
X-166659Y344437D01*
X-167731Y345053D01*
X-168837Y345728D01*
X-169978Y346462D01*
X-171154Y347254D01*
X-171154Y337967D01*
G37*
G36*
X-171154Y372874D02*
X-173031Y372874D01*
X-173031Y384295D01*
X-171240Y384295D01*
X-169325Y383068D01*
X-167630Y382035D01*
X-166154Y381197D01*
X-165498Y380851D01*
X-164897Y380553D01*
X-163754Y380042D01*
X-163185Y379811D01*
X-162618Y379598D01*
X-162053Y379402D01*
X-161490Y379223D01*
X-160929Y379061D01*
X-160370Y378916D01*
X-159809Y378788D01*
X-159244Y378677D01*
X-158673Y378583D01*
X-158097Y378506D01*
X-157517Y378447D01*
X-156931Y378404D01*
X-156341Y378378D01*
X-155745Y378370D01*
X-155745Y376063D01*
X-156579Y376085D01*
X-157423Y376151D01*
X-158278Y376261D01*
X-159145Y376415D01*
X-160022Y376612D01*
X-160910Y376854D01*
X-161809Y377139D01*
X-162719Y377468D01*
X-163652Y377849D01*
X-164620Y378288D01*
X-165622Y378786D01*
X-166659Y379344D01*
X-167731Y379960D01*
X-168837Y380634D01*
X-169978Y381368D01*
X-171154Y382161D01*
X-171154Y372874D01*
G37*
G36*
X-155745Y366911D02*
X-158432Y366911D01*
X-158432Y369303D01*
X-155745Y369303D01*
X-155745Y366911D01*
G37*
D10*
X0Y737000D02*
X276Y871385D01*
X975276Y869385D02*
X975000Y735000D01*
X974586Y849886D02*
X886Y851883D01*
X26242Y855024D01*
X26229Y848639D01*
X886Y851883D01*
X26238Y853131D01*
X26233Y850531D02*
X886Y851883D01*
X26241Y854431D01*
X26230Y849231D02*
X886Y851883D01*
X949242Y853130D02*
X974586Y849886D01*
X949242Y853130D02*
X949229Y846746D01*
X974586Y849886D01*
X949238Y851238D01*
X949233Y848638D02*
X974586Y849886D01*
X949241Y852538D01*
X949230Y847338D02*
X974586Y849886D01*
X0Y737000D02*
X-169500Y737000D01*
X-169500Y0D02*
X0Y0D01*
X-150000Y650D02*
X-150000Y736350D01*
X-153192Y711000D01*
X-146808Y711000D01*
X-150000Y736350D01*
X-151300Y711000D01*
X-148700Y711000D02*
X-150000Y736350D01*
X-152600Y711000D01*
X-147400Y711000D02*
X-150000Y736350D01*
X-153192Y26000D02*
X-150000Y650D01*
X-153192Y26000D02*
X-146808Y26000D01*
X-150000Y650D01*
X-151300Y26000D01*
X-148700Y26000D02*
X-150000Y650D01*
X-152600Y26000D01*
X-147400Y26000D02*
X-150000Y650D01*
D11*
X216900Y110780D02*
X216900Y126020D01*
X242300Y126020D02*
X242300Y110780D01*
X267700Y110780D02*
X267700Y126020D01*
X293100Y126020D02*
X293100Y110780D01*
X318500Y110780D02*
X318500Y126020D01*
X343900Y126020D02*
X343900Y110780D01*
X394700Y110780D02*
X394700Y126020D01*
X420100Y126020D02*
X420100Y110780D01*
X445500Y110780D02*
X445500Y126020D01*
X470900Y126020D02*
X470900Y110780D01*
X496300Y110780D02*
X496300Y126020D01*
X521700Y126020D02*
X521700Y110780D01*
X547100Y110780D02*
X547100Y126020D01*
X572500Y126020D02*
X572500Y110780D01*
X623300Y110780D02*
X623300Y126020D01*
X648700Y126020D02*
X648700Y110780D01*
X674100Y110780D02*
X674100Y126020D01*
X699500Y126020D02*
X699500Y110780D01*
X724900Y110780D02*
X724900Y126020D01*
X750300Y126020D02*
X750300Y110780D01*
X775700Y110780D02*
X775700Y126020D01*
X801100Y126020D02*
X801100Y110780D01*
X343900Y593380D02*
X343900Y608620D01*
X369300Y608620D02*
X369300Y593380D01*
X394700Y593380D02*
X394700Y608620D01*
X420100Y608620D02*
X420100Y593380D01*
X445500Y593380D02*
X445500Y608620D01*
X470900Y608620D02*
X470900Y593380D01*
X496300Y593380D02*
X496300Y608620D01*
X521700Y608620D02*
X521700Y593380D01*
X572500Y593380D02*
X572500Y608620D01*
X597900Y608620D02*
X597900Y593380D01*
X623300Y593380D02*
X623300Y608620D01*
X648700Y608620D02*
X648700Y593380D01*
X674100Y593380D02*
X674100Y608620D01*
X699500Y608620D02*
X699500Y593380D01*
X724900Y593380D02*
X724900Y608620D01*
X750300Y608620D02*
X750300Y593380D01*
X125450Y593380D02*
X125450Y608620D01*
X150850Y608620D02*
X150850Y593380D01*
X176250Y593380D02*
X176250Y608620D01*
X201650Y608620D02*
X201650Y593380D01*
X227050Y593380D02*
X227050Y608620D01*
X252450Y608620D02*
X252450Y593380D01*
X277850Y593380D02*
X277850Y608620D01*
X303250Y608620D02*
X303250Y593380D01*
D12*
X851900Y245400D03*
X826500Y245400D03*
X851900Y270800D03*
X826500Y270800D03*
X851900Y296200D03*
X826500Y296200D03*
X851900Y321600D03*
X826500Y321600D03*
X851900Y347000D03*
X826500Y347000D03*
X851900Y372400D03*
X826500Y372400D03*
X851900Y397800D03*
X826500Y397800D03*
X851900Y423200D03*
X826500Y423200D03*
X851900Y169200D03*
X826500Y169200D03*
X851900Y194600D03*
X826500Y194600D03*
X851900Y220000D03*
X826500Y220000D03*
X851900Y448600D03*
X826500Y448600D03*
X851900Y474000D03*
X826500Y474000D03*
X851900Y499400D03*
X826500Y499400D03*
X851900Y524800D03*
X826500Y524800D03*
X851900Y550200D03*
X826500Y550200D03*
X851900Y575600D03*
X826500Y575600D03*
X851900Y601000D03*
X826500Y601000D03*
D13*
X260300Y319600D03*
X260300Y345000D03*
X260300Y370400D03*
X260300Y395800D03*
X260300Y421200D03*
X260300Y446600D03*
X260300Y472000D03*
X260300Y497400D03*
X133300Y497400D03*
X133300Y472000D03*
X133300Y446600D03*
X133300Y421200D03*
X133300Y395800D03*
X133300Y370400D03*
X133300Y345000D03*
X133300Y319600D03*
X743000Y319600D03*
X743000Y345000D03*
X743000Y370400D03*
X743000Y395800D03*
X743000Y421200D03*
X743000Y446600D03*
X743000Y472000D03*
X743000Y497400D03*
X616000Y497400D03*
X616000Y472000D03*
X616000Y446600D03*
X616000Y421200D03*
X616000Y395800D03*
X616000Y370400D03*
X616000Y345000D03*
X616000Y319600D03*
X514500Y319600D03*
X514500Y345000D03*
X514500Y370400D03*
X514500Y395800D03*
X514500Y421200D03*
X514500Y446600D03*
X514500Y472000D03*
X514500Y497400D03*
X387500Y497400D03*
X387500Y472000D03*
X387500Y446600D03*
X387500Y421200D03*
X387500Y395800D03*
X387500Y370400D03*
X387500Y345000D03*
X387500Y319600D03*
D11*
X58520Y528100D02*
X43280Y528100D01*
X43280Y553500D02*
X58520Y553500D01*
X58520Y578900D02*
X43280Y578900D01*
X43280Y604300D02*
X58520Y604300D01*
X173500Y684780D02*
X173500Y700020D01*
X198900Y700020D02*
X198900Y684780D01*
X224300Y684780D02*
X224300Y700020D01*
X249700Y700020D02*
X249700Y684780D01*
X331600Y683680D02*
X331600Y698920D01*
X357000Y698920D02*
X357000Y683680D01*
X382400Y683680D02*
X382400Y698920D01*
X407800Y698920D02*
X407800Y683680D01*
X750900Y684680D02*
X750900Y699920D01*
X776300Y699920D02*
X776300Y684680D01*
X627500Y684680D02*
X627500Y699920D01*
X652900Y699920D02*
X652900Y684680D01*
X678300Y684680D02*
X678300Y699920D01*
X489400Y700920D02*
X489400Y685680D01*
X514800Y685680D02*
X514800Y700920D01*
X540200Y700920D02*
X540200Y685680D01*
X910480Y669100D02*
X925720Y669100D01*
X925720Y643700D02*
X910480Y643700D01*
X910480Y618300D02*
X925720Y618300D01*
X925720Y592900D02*
X910480Y592900D01*
X911880Y530600D02*
X927120Y530600D01*
X927120Y505200D02*
X911880Y505200D01*
X911880Y479800D02*
X927120Y479800D01*
X927120Y454400D02*
X911880Y454400D01*
X912180Y393800D02*
X927420Y393800D01*
X927420Y368400D02*
X912180Y368400D01*
X912180Y343000D02*
X927420Y343000D01*
X927420Y317600D02*
X912180Y317600D01*
X911780Y255940D02*
X927020Y255940D01*
X927020Y230540D02*
X911780Y230540D01*
X911780Y205140D02*
X927020Y205140D01*
X927020Y179740D02*
X911780Y179740D01*
X518000Y56520D02*
X518000Y41280D01*
X492600Y41280D02*
X492600Y56520D01*
X467200Y56520D02*
X467200Y41280D01*
X441800Y41280D02*
X441800Y56520D01*
X817800Y56720D02*
X817800Y41480D01*
X792400Y41480D02*
X792400Y56720D01*
X767000Y56720D02*
X767000Y41480D01*
X741600Y41480D02*
X741600Y56720D01*
X665000Y56220D02*
X665000Y40980D01*
X639600Y40980D02*
X639600Y56220D01*
X614200Y56220D02*
X614200Y40980D01*
X588800Y40980D02*
X588800Y56220D01*
D14*
X43000Y370000D03*
X43000Y420800D03*
X43000Y471600D03*
D11*
X464600Y200620D02*
X464600Y185380D01*
X490000Y185380D02*
X490000Y200620D01*
X515400Y200620D02*
X515400Y185380D01*
X204600Y185380D02*
X204600Y200620D01*
X230000Y200620D02*
X230000Y185380D01*
X255400Y185380D02*
X255400Y200620D01*
X595600Y200620D02*
X595600Y185380D01*
X621000Y185380D02*
X621000Y200620D01*
X646400Y200620D02*
X646400Y185380D01*
X358400Y56720D02*
X358400Y41480D01*
X333000Y41480D02*
X333000Y56720D01*
X307600Y56720D02*
X307600Y41480D01*
X213400Y41480D02*
X213400Y56720D01*
X188000Y56720D02*
X188000Y41480D01*
X162600Y41480D02*
X162600Y56720D01*
X325600Y185380D02*
X325600Y200620D01*
X351000Y200620D02*
X351000Y185380D01*
X376400Y185380D02*
X376400Y200620D01*
X910262Y111400D02*
X925502Y111400D01*
X925502Y86000D02*
X910262Y86000D01*
X910262Y60600D02*
X925502Y60600D01*
D15*
X520000Y100000D02*
X470000Y50000D01*
X520000Y100000D02*
X520000Y115000D01*
X470000Y50000D02*
X467200Y48900D01*
X520000Y115000D02*
X521700Y118400D01*
X677957Y692061D02*
X678300Y692300D01*
X597900Y612004D02*
X597900Y601000D01*
X597900Y612004D02*
X677957Y692061D01*
X750811Y692074D02*
X750900Y692300D01*
X714374Y692074D02*
X623300Y601000D01*
X714374Y692074D02*
X750811Y692074D01*
X743000Y446600D02*
X743000Y421200D01*
X514500Y421200D02*
X514500Y446600D01*
X260300Y446600D02*
X260300Y421200D01*
D16*
X540000Y582000D02*
X569000Y553000D01*
X652900Y681300D02*
X652900Y692300D01*
X566000Y642000D02*
X552000Y628000D01*
X552000Y587000D01*
X583000Y556000D01*
X586000Y556000D01*
X461000Y545500D02*
X387500Y472000D01*
X461000Y545500D02*
X461000Y549000D01*
X182300Y521000D02*
X133300Y472000D01*
X182300Y521000D02*
X398000Y521000D01*
X425000Y548000D01*
X188000Y124000D02*
X188000Y49100D01*
X188000Y124000D02*
X205000Y141000D01*
X262000Y141000D01*
X291000Y170000D01*
X333000Y59000D02*
X333000Y49100D01*
X333000Y59000D02*
X362000Y88000D01*
X362000Y131000D01*
X398000Y167000D01*
D17*
X944000Y716000D02*
X952000Y708000D01*
X944000Y716000D02*
X894000Y716000D01*
X677000Y499000D01*
X952000Y426000D02*
X952000Y288540D01*
X919400Y255940D01*
X919800Y393800D02*
X952000Y426000D01*
X952000Y703000D02*
X952000Y708000D01*
X952000Y703000D02*
X952000Y563100D01*
X952000Y426000D01*
X919500Y530600D02*
X952000Y563100D01*
X918100Y669100D02*
X952000Y703000D01*
X541100Y72000D02*
X518000Y48900D01*
X541100Y72000D02*
X561000Y72000D01*
X575000Y86000D02*
X702400Y86000D01*
X783000Y86000D01*
X817800Y51200D01*
X817800Y49100D01*
X575000Y86000D02*
X561000Y72000D01*
X575000Y86000D02*
X589000Y100000D01*
X589000Y129000D01*
X617000Y157000D01*
X702400Y86000D02*
X665000Y48600D01*
X952000Y145518D02*
X952000Y288540D01*
X952000Y145518D02*
X917882Y111400D01*
D16*
X514992Y693108D02*
X514800Y693300D01*
X514992Y693108D02*
X514992Y671209D01*
X540000Y646201D02*
X540000Y582000D01*
X540000Y646201D02*
X514992Y671209D01*
X613600Y642000D02*
X652900Y681300D01*
X613600Y642000D02*
X566000Y642000D01*
D18*
X287180Y35180D02*
X272000Y20000D01*
X343900Y93013D02*
X343900Y118400D01*
X287180Y61693D02*
X287180Y35180D01*
X329027Y78140D02*
X343900Y93013D01*
X329027Y78140D02*
X303627Y78140D01*
X287180Y61693D01*
X888000Y562800D02*
X918100Y592900D01*
X919500Y454400D02*
X888000Y422900D01*
X919800Y317600D02*
X888000Y285800D01*
X919400Y179740D02*
X888000Y148340D01*
D19*
X714000Y21500D02*
X714000Y19419D01*
X419000Y19919D02*
X419000Y26100D01*
X560000Y19800D02*
X560000Y19419D01*
D20*
X226000Y280000D03*
X339000Y280000D03*
X483000Y280000D03*
X577000Y281000D03*
D15*
X110000Y576000D02*
X81700Y604300D01*
X50900Y604300D01*
X110000Y576000D02*
X110000Y469900D01*
X133300Y446600D01*
X99000Y554000D02*
X74000Y579000D01*
X51000Y579000D01*
X50900Y578900D01*
X99000Y554000D02*
X99000Y455500D01*
X133300Y421200D01*
X74500Y553500D02*
X50900Y553500D01*
X74500Y553500D02*
X88000Y540000D01*
X88000Y441000D01*
X133200Y395800D01*
X133300Y395800D01*
X76000Y519000D02*
X66900Y528100D01*
X50900Y528100D01*
X76000Y519000D02*
X76000Y427700D01*
X133300Y370400D01*
X326000Y616100D02*
X249700Y692400D01*
X326000Y616100D02*
X326000Y545000D01*
X340000Y531000D01*
D20*
X340000Y531000D03*
D15*
X616000Y421200D02*
X616426Y421604D01*
X596646Y421604D02*
X540250Y478000D01*
X596646Y421604D02*
X616426Y421604D01*
D20*
X540202Y478000D03*
D15*
X540250Y478000D01*
M02*
