G04 EAGLE Gerber RS-274X export*
G75*
%MOMM*%
%FSLAX34Y34*%
%LPD*%
%INTop Copper*%
%IPPOS*%
%AMOC8*
5,1,8,0,0,1.08239X$1,22.5*%
G01*
G04 Define Apertures*
%ADD10C,1.524000*%
%ADD11P,1.64956X8X112.5*%
%ADD12C,1.524000*%
%ADD13C,1.800000*%
%ADD14C,0.550000*%
%ADD15C,0.304800*%
%ADD16C,1.160000*%
D10*
X216900Y110780D02*
X216900Y126020D01*
X242300Y126020D02*
X242300Y110780D01*
X267700Y110780D02*
X267700Y126020D01*
X293100Y126020D02*
X293100Y110780D01*
X318500Y110780D02*
X318500Y126020D01*
X343900Y126020D02*
X343900Y110780D01*
X394700Y110780D02*
X394700Y126020D01*
X420100Y126020D02*
X420100Y110780D01*
X445500Y110780D02*
X445500Y126020D01*
X470900Y126020D02*
X470900Y110780D01*
X496300Y110780D02*
X496300Y126020D01*
X521700Y126020D02*
X521700Y110780D01*
X547100Y110780D02*
X547100Y126020D01*
X572500Y126020D02*
X572500Y110780D01*
X623300Y110780D02*
X623300Y126020D01*
X648700Y126020D02*
X648700Y110780D01*
X674100Y110780D02*
X674100Y126020D01*
X699500Y126020D02*
X699500Y110780D01*
X724900Y110780D02*
X724900Y126020D01*
X750300Y126020D02*
X750300Y110780D01*
X775700Y110780D02*
X775700Y126020D01*
X801100Y126020D02*
X801100Y110780D01*
X572500Y593380D02*
X572500Y608620D01*
X597900Y608620D02*
X597900Y593380D01*
X623300Y593380D02*
X623300Y608620D01*
X648700Y608620D02*
X648700Y593380D01*
X674100Y593380D02*
X674100Y608620D01*
X699500Y608620D02*
X699500Y593380D01*
X724900Y593380D02*
X724900Y608620D01*
X750300Y608620D02*
X750300Y593380D01*
X343900Y593380D02*
X343900Y608620D01*
X369300Y608620D02*
X369300Y593380D01*
X394700Y593380D02*
X394700Y608620D01*
X420100Y608620D02*
X420100Y593380D01*
X445500Y593380D02*
X445500Y608620D01*
X470900Y608620D02*
X470900Y593380D01*
X496300Y593380D02*
X496300Y608620D01*
X521700Y608620D02*
X521700Y593380D01*
X125450Y593380D02*
X125450Y608620D01*
X150850Y608620D02*
X150850Y593380D01*
X176250Y593380D02*
X176250Y608620D01*
X201650Y608620D02*
X201650Y593380D01*
X227050Y593380D02*
X227050Y608620D01*
X252450Y608620D02*
X252450Y593380D01*
X277850Y593380D02*
X277850Y608620D01*
X303250Y608620D02*
X303250Y593380D01*
D11*
X851900Y245400D03*
X826500Y245400D03*
X851900Y270800D03*
X826500Y270800D03*
X851900Y296200D03*
X826500Y296200D03*
X851900Y321600D03*
X826500Y321600D03*
X851900Y347000D03*
X826500Y347000D03*
X851900Y372400D03*
X826500Y372400D03*
X851900Y397800D03*
X826500Y397800D03*
X851900Y423200D03*
X826500Y423200D03*
X851900Y169200D03*
X826500Y169200D03*
X851900Y194600D03*
X826500Y194600D03*
X851900Y220000D03*
X826500Y220000D03*
X851900Y448600D03*
X826500Y448600D03*
X851900Y474000D03*
X826500Y474000D03*
X851900Y499400D03*
X826500Y499400D03*
X851900Y524800D03*
X826500Y524800D03*
X851900Y550200D03*
X826500Y550200D03*
X851900Y575600D03*
X826500Y575600D03*
X851900Y601000D03*
X826500Y601000D03*
D12*
X260300Y319600D03*
X260300Y345000D03*
X260300Y370400D03*
X260300Y395800D03*
X260300Y421200D03*
X260300Y446600D03*
X260300Y472000D03*
X260300Y497400D03*
X133300Y497400D03*
X133300Y472000D03*
X133300Y446600D03*
X133300Y421200D03*
X133300Y395800D03*
X133300Y370400D03*
X133300Y345000D03*
X133300Y319600D03*
X743000Y319600D03*
X743000Y345000D03*
X743000Y370400D03*
X743000Y395800D03*
X743000Y421200D03*
X743000Y446600D03*
X743000Y472000D03*
X743000Y497400D03*
X616000Y497400D03*
X616000Y472000D03*
X616000Y446600D03*
X616000Y421200D03*
X616000Y395800D03*
X616000Y370400D03*
X616000Y345000D03*
X616000Y319600D03*
X514500Y319600D03*
X514500Y345000D03*
X514500Y370400D03*
X514500Y395800D03*
X514500Y421200D03*
X514500Y446600D03*
X514500Y472000D03*
X514500Y497400D03*
X387500Y497400D03*
X387500Y472000D03*
X387500Y446600D03*
X387500Y421200D03*
X387500Y395800D03*
X387500Y370400D03*
X387500Y345000D03*
X387500Y319600D03*
D10*
X58520Y528100D02*
X43280Y528100D01*
X43280Y553500D02*
X58520Y553500D01*
X58520Y578900D02*
X43280Y578900D01*
X43280Y604300D02*
X58520Y604300D01*
X198500Y690780D02*
X198500Y706020D01*
X223900Y706020D02*
X223900Y690780D01*
X249300Y690780D02*
X249300Y706020D01*
X274700Y706020D02*
X274700Y690780D01*
X330600Y690680D02*
X330600Y705920D01*
X356000Y705920D02*
X356000Y690680D01*
X381400Y690680D02*
X381400Y705920D01*
X406800Y705920D02*
X406800Y690680D01*
X720900Y688780D02*
X720900Y704020D01*
X746300Y704020D02*
X746300Y688780D01*
X596700Y689180D02*
X596700Y704420D01*
X622100Y704420D02*
X622100Y689180D01*
X647500Y689180D02*
X647500Y704420D01*
X485600Y704320D02*
X485600Y689080D01*
X511000Y689080D02*
X511000Y704320D01*
X536400Y704320D02*
X536400Y689080D01*
X917480Y611100D02*
X932720Y611100D01*
X932720Y585700D02*
X917480Y585700D01*
X917480Y560300D02*
X932720Y560300D01*
X932720Y534900D02*
X917480Y534900D01*
X916880Y502600D02*
X932120Y502600D01*
X932120Y477200D02*
X916880Y477200D01*
X916880Y451800D02*
X932120Y451800D01*
X932120Y426400D02*
X916880Y426400D01*
X917180Y392800D02*
X932420Y392800D01*
X932420Y367400D02*
X917180Y367400D01*
X917180Y342000D02*
X932420Y342000D01*
X932420Y316600D02*
X917180Y316600D01*
X918780Y283600D02*
X934020Y283600D01*
X934020Y258200D02*
X918780Y258200D01*
X918780Y232800D02*
X934020Y232800D01*
X934020Y207400D02*
X918780Y207400D01*
X523000Y62520D02*
X523000Y47280D01*
X497600Y47280D02*
X497600Y62520D01*
X472200Y62520D02*
X472200Y47280D01*
X446800Y47280D02*
X446800Y62520D01*
X812800Y59720D02*
X812800Y44480D01*
X787400Y44480D02*
X787400Y59720D01*
X762000Y59720D02*
X762000Y44480D01*
X736600Y44480D02*
X736600Y59720D01*
X662000Y62220D02*
X662000Y46980D01*
X636600Y46980D02*
X636600Y62220D01*
X611200Y62220D02*
X611200Y46980D01*
X585800Y46980D02*
X585800Y62220D01*
X918780Y159500D02*
X934020Y159500D01*
X934020Y134100D02*
X918780Y134100D01*
X918780Y108700D02*
X934020Y108700D01*
X934020Y83300D02*
X918780Y83300D01*
D13*
X43000Y370000D03*
X43000Y420800D03*
X43000Y471600D03*
D10*
X618600Y210620D02*
X618600Y195380D01*
X644000Y195380D02*
X644000Y210620D01*
X669400Y210620D02*
X669400Y195380D01*
D14*
X407000Y487000D03*
D15*
X743000Y446600D02*
X743000Y430000D01*
X743000Y421200D01*
X742500Y430000D02*
X572500Y600000D01*
X572500Y601000D01*
X742500Y430000D02*
X743000Y430000D01*
X727500Y472500D02*
X600000Y600000D01*
X727500Y472500D02*
X742500Y472500D01*
X600000Y600000D02*
X597900Y601000D01*
X742500Y472500D02*
X743000Y472000D01*
X727500Y497500D02*
X625000Y600000D01*
X727500Y497500D02*
X742500Y497500D01*
X625000Y600000D02*
X623300Y601000D01*
X742500Y497500D02*
X743000Y497400D01*
X672500Y602500D02*
X647500Y627500D01*
X647500Y696800D01*
X672500Y602500D02*
X674100Y601000D01*
X700000Y602500D02*
X720000Y622500D01*
X720000Y695000D01*
X700000Y602500D02*
X699500Y601000D01*
X720000Y695000D02*
X720900Y696400D01*
X260300Y446600D02*
X260300Y421200D01*
X514500Y435000D02*
X514500Y446600D01*
X514500Y435000D02*
X514500Y421200D01*
X330000Y512500D02*
X250000Y512500D01*
X330000Y512500D02*
X330000Y487500D01*
X382500Y435000D01*
X514500Y435000D01*
D14*
X250000Y512500D03*
D15*
X337500Y512500D02*
X375000Y475000D01*
X375000Y467500D01*
X382500Y460000D01*
X512500Y460000D01*
X512500Y470000D01*
X514500Y472000D01*
D14*
X337500Y512500D03*
D16*
X669400Y441600D02*
X669400Y203000D01*
X669400Y441600D02*
X639000Y472000D01*
X616000Y472000D01*
X598000Y472000D01*
X545000Y525000D01*
X511000Y525000D01*
X464000Y525000D01*
X411000Y472000D01*
X387500Y472000D01*
X464000Y525000D02*
X217000Y525000D01*
X164000Y472000D01*
X133300Y472000D01*
X511000Y525000D02*
X544000Y558000D01*
X544000Y635000D01*
X544000Y654000D01*
X511000Y668000D02*
X511000Y696700D01*
X511000Y668000D02*
X544000Y635000D01*
X544000Y654000D02*
X552000Y662000D01*
X613000Y662000D01*
X623000Y672000D01*
X623000Y695900D01*
X622100Y696800D01*
X622100Y713100D01*
X629000Y720000D01*
X858000Y720000D01*
X925100Y652900D01*
X958000Y620000D01*
X958000Y404000D02*
X958000Y291000D01*
X950600Y283600D01*
X926400Y283600D01*
X926400Y159500D02*
X950500Y159500D01*
X958000Y167000D01*
X958000Y291000D01*
X946800Y392800D02*
X924800Y392800D01*
X946800Y392800D02*
X958000Y404000D01*
X958000Y513000D01*
X958000Y620000D01*
X947600Y502600D02*
X924500Y502600D01*
X947600Y502600D02*
X958000Y513000D01*
X925100Y611100D02*
X925100Y652900D01*
D15*
X725000Y55000D02*
X662500Y55000D01*
X725000Y55000D02*
X725000Y65000D01*
X732500Y72500D01*
X812500Y72500D01*
X812500Y52500D01*
X662500Y55000D02*
X662000Y54600D01*
X812500Y52500D02*
X812800Y52100D01*
X572500Y55000D02*
X525000Y55000D01*
X572500Y55000D02*
X572500Y65000D01*
X582500Y75000D01*
X600000Y75000D01*
X600000Y42500D01*
X607500Y35000D01*
X660000Y35000D01*
X660000Y52500D01*
X525000Y55000D02*
X523000Y54900D01*
X660000Y52500D02*
X662000Y54600D01*
X907500Y140000D02*
X925000Y157500D01*
X907500Y140000D02*
X907500Y130000D01*
X917500Y120000D01*
X945000Y120000D01*
X945000Y77500D01*
X940000Y72500D01*
X812500Y72500D01*
X925000Y157500D02*
X926400Y159500D01*
X838100Y564000D02*
X826500Y575600D01*
X838100Y564000D02*
X921400Y564000D01*
X925100Y560300D01*
X840000Y537500D02*
X827500Y550000D01*
X840000Y537500D02*
X887500Y537500D01*
X897500Y547500D01*
X945000Y547500D01*
X945000Y530000D01*
X930000Y515000D01*
X905000Y515000D01*
X905000Y470000D01*
X922500Y452500D01*
X827500Y550000D02*
X826500Y550200D01*
X922500Y452500D02*
X924500Y451800D01*
X855000Y285000D02*
X872500Y267500D01*
X855000Y285000D02*
X837500Y285000D01*
X837500Y487500D01*
X827500Y497500D01*
X826500Y499400D01*
D14*
X872500Y267500D03*
D15*
X517500Y100000D02*
X472500Y55000D01*
X517500Y100000D02*
X637500Y100000D01*
X637500Y135000D01*
X472500Y55000D02*
X472200Y54900D01*
D14*
X637500Y135000D03*
D15*
X657500Y100000D02*
X612500Y55000D01*
X657500Y100000D02*
X762500Y100000D01*
X762500Y132500D01*
X612500Y55000D02*
X611200Y54600D01*
D14*
X762500Y132500D03*
D16*
X84000Y329000D02*
X43000Y370000D01*
X84000Y329000D02*
X84000Y265000D01*
X186000Y234000D02*
X473100Y234000D01*
X506000Y234000D01*
X568600Y234000D01*
X537000Y203000D02*
X618600Y203000D01*
X537000Y203000D02*
X506000Y234000D01*
X473100Y234000D02*
X387500Y319600D01*
X616000Y319600D02*
X616000Y281400D01*
X568600Y234000D01*
X133300Y286700D02*
X133300Y319600D01*
X133300Y286700D02*
X186000Y234000D01*
X115000Y234000D01*
X84000Y265000D01*
X618600Y203000D02*
X618600Y175400D01*
X648000Y146000D01*
X833000Y146000D01*
X865000Y146000D01*
X884000Y165000D01*
X884000Y228000D01*
X884000Y336000D01*
X884000Y446000D01*
X884000Y521000D01*
X898000Y535000D01*
X925000Y535000D01*
X925100Y534900D01*
X924500Y426400D02*
X903600Y426400D01*
X884000Y446000D01*
X903400Y316600D02*
X924800Y316600D01*
X903400Y316600D02*
X884000Y336000D01*
X904600Y207400D02*
X926400Y207400D01*
X904600Y207400D02*
X884000Y228000D01*
X895700Y83300D02*
X926400Y83300D01*
X895700Y83300D02*
X833000Y146000D01*
X84000Y42000D02*
X84000Y265000D01*
X106000Y20000D02*
X272000Y20000D01*
X412000Y20000D01*
X551200Y20000D01*
X704500Y20000D01*
X736600Y52100D01*
X106000Y20000D02*
X84000Y42000D01*
X412000Y20100D02*
X446800Y54900D01*
X412000Y20100D02*
X412000Y20000D01*
X551200Y20000D02*
X585800Y54600D01*
X343900Y91900D02*
X343900Y118400D01*
X343900Y91900D02*
X272000Y20000D01*
D15*
X110000Y576000D02*
X81700Y604300D01*
X50900Y604300D01*
X110000Y576000D02*
X110000Y469900D01*
X133300Y446600D01*
X99000Y554000D02*
X74000Y579000D01*
X51000Y579000D01*
X50900Y578900D01*
X99000Y554000D02*
X99000Y455500D01*
X133300Y421200D01*
X74500Y553500D02*
X50900Y553500D01*
X74500Y553500D02*
X88000Y540000D01*
X88000Y441000D01*
X133200Y395800D01*
X133300Y395800D01*
X76000Y519000D02*
X66900Y528100D01*
X50900Y528100D01*
X76000Y519000D02*
X76000Y427700D01*
X133300Y370400D01*
X292500Y537500D02*
X290000Y540000D01*
X290000Y682500D01*
X275000Y697500D01*
X274700Y698400D01*
D14*
X292500Y537500D03*
D15*
X257500Y537500D02*
X240000Y555000D01*
X240000Y690000D01*
X247500Y697500D01*
X249300Y698400D01*
D14*
X257500Y537500D03*
D15*
X300000Y460000D02*
X387500Y372500D01*
X300000Y460000D02*
X127500Y460000D01*
X127500Y462500D01*
X122500Y467500D01*
X122500Y522500D01*
X190000Y590000D01*
X190000Y690000D01*
X197500Y697500D01*
X387500Y372500D02*
X387500Y370400D01*
X197500Y697500D02*
X198500Y698400D01*
X482500Y587500D02*
X520000Y550000D01*
X482500Y587500D02*
X482500Y622500D01*
X407500Y697500D01*
X406800Y698300D01*
D14*
X520000Y550000D03*
D15*
X500000Y547500D02*
X482500Y547500D01*
X480000Y545000D01*
X357500Y545000D01*
X357500Y697500D01*
X356000Y698300D01*
D14*
X500000Y547500D03*
D15*
X477500Y552500D02*
X457500Y572500D01*
X457500Y622500D01*
X382500Y697500D01*
X381400Y698300D01*
D14*
X477500Y552500D03*
D15*
X527500Y460000D02*
X615000Y372500D01*
X527500Y460000D02*
X527500Y512500D01*
X502500Y537500D02*
X332500Y537500D01*
X332500Y697500D01*
X615000Y372500D02*
X616000Y370400D01*
X332500Y697500D02*
X330600Y698300D01*
D14*
X527500Y512500D03*
X502500Y537500D03*
M02*
