G04 EAGLE Gerber RS-274X export*
G75*
%MOMM*%
%FSLAX34Y34*%
%LPD*%
%INSoldermask Top*%
%IPPOS*%
%AMOC8*
5,1,8,0,0,1.08239X$1,22.5*%
G01*
G04 Define Apertures*
%ADD10C,1.625600*%
%ADD11P,1.75953X8X112.5*%
%ADD12C,1.625600*%
%ADD13C,1.901600*%
D10*
X216900Y110780D02*
X216900Y126020D01*
X242300Y126020D02*
X242300Y110780D01*
X267700Y110780D02*
X267700Y126020D01*
X293100Y126020D02*
X293100Y110780D01*
X318500Y110780D02*
X318500Y126020D01*
X343900Y126020D02*
X343900Y110780D01*
X394700Y110780D02*
X394700Y126020D01*
X420100Y126020D02*
X420100Y110780D01*
X445500Y110780D02*
X445500Y126020D01*
X470900Y126020D02*
X470900Y110780D01*
X496300Y110780D02*
X496300Y126020D01*
X521700Y126020D02*
X521700Y110780D01*
X547100Y110780D02*
X547100Y126020D01*
X572500Y126020D02*
X572500Y110780D01*
X623300Y110780D02*
X623300Y126020D01*
X648700Y126020D02*
X648700Y110780D01*
X674100Y110780D02*
X674100Y126020D01*
X699500Y126020D02*
X699500Y110780D01*
X724900Y110780D02*
X724900Y126020D01*
X750300Y126020D02*
X750300Y110780D01*
X775700Y110780D02*
X775700Y126020D01*
X801100Y126020D02*
X801100Y110780D01*
X343900Y593380D02*
X343900Y608620D01*
X369300Y608620D02*
X369300Y593380D01*
X394700Y593380D02*
X394700Y608620D01*
X420100Y608620D02*
X420100Y593380D01*
X445500Y593380D02*
X445500Y608620D01*
X470900Y608620D02*
X470900Y593380D01*
X496300Y593380D02*
X496300Y608620D01*
X521700Y608620D02*
X521700Y593380D01*
X572500Y593380D02*
X572500Y608620D01*
X597900Y608620D02*
X597900Y593380D01*
X623300Y593380D02*
X623300Y608620D01*
X648700Y608620D02*
X648700Y593380D01*
X674100Y593380D02*
X674100Y608620D01*
X699500Y608620D02*
X699500Y593380D01*
X724900Y593380D02*
X724900Y608620D01*
X750300Y608620D02*
X750300Y593380D01*
X125450Y593380D02*
X125450Y608620D01*
X150850Y608620D02*
X150850Y593380D01*
X176250Y593380D02*
X176250Y608620D01*
X201650Y608620D02*
X201650Y593380D01*
X227050Y593380D02*
X227050Y608620D01*
X252450Y608620D02*
X252450Y593380D01*
X277850Y593380D02*
X277850Y608620D01*
X303250Y608620D02*
X303250Y593380D01*
D11*
X851900Y245400D03*
X826500Y245400D03*
X851900Y270800D03*
X826500Y270800D03*
X851900Y296200D03*
X826500Y296200D03*
X851900Y321600D03*
X826500Y321600D03*
X851900Y347000D03*
X826500Y347000D03*
X851900Y372400D03*
X826500Y372400D03*
X851900Y397800D03*
X826500Y397800D03*
X851900Y423200D03*
X826500Y423200D03*
X851900Y169200D03*
X826500Y169200D03*
X851900Y194600D03*
X826500Y194600D03*
X851900Y220000D03*
X826500Y220000D03*
X851900Y448600D03*
X826500Y448600D03*
X851900Y474000D03*
X826500Y474000D03*
X851900Y499400D03*
X826500Y499400D03*
X851900Y524800D03*
X826500Y524800D03*
X851900Y550200D03*
X826500Y550200D03*
X851900Y575600D03*
X826500Y575600D03*
X851900Y601000D03*
X826500Y601000D03*
D12*
X260300Y319600D03*
X260300Y345000D03*
X260300Y370400D03*
X260300Y395800D03*
X260300Y421200D03*
X260300Y446600D03*
X260300Y472000D03*
X260300Y497400D03*
X133300Y497400D03*
X133300Y472000D03*
X133300Y446600D03*
X133300Y421200D03*
X133300Y395800D03*
X133300Y370400D03*
X133300Y345000D03*
X133300Y319600D03*
X743000Y319600D03*
X743000Y345000D03*
X743000Y370400D03*
X743000Y395800D03*
X743000Y421200D03*
X743000Y446600D03*
X743000Y472000D03*
X743000Y497400D03*
X616000Y497400D03*
X616000Y472000D03*
X616000Y446600D03*
X616000Y421200D03*
X616000Y395800D03*
X616000Y370400D03*
X616000Y345000D03*
X616000Y319600D03*
X514500Y319600D03*
X514500Y345000D03*
X514500Y370400D03*
X514500Y395800D03*
X514500Y421200D03*
X514500Y446600D03*
X514500Y472000D03*
X514500Y497400D03*
X387500Y497400D03*
X387500Y472000D03*
X387500Y446600D03*
X387500Y421200D03*
X387500Y395800D03*
X387500Y370400D03*
X387500Y345000D03*
X387500Y319600D03*
D10*
X58520Y528100D02*
X43280Y528100D01*
X43280Y553500D02*
X58520Y553500D01*
X58520Y578900D02*
X43280Y578900D01*
X43280Y604300D02*
X58520Y604300D01*
X173500Y684780D02*
X173500Y700020D01*
X198900Y700020D02*
X198900Y684780D01*
X224300Y684780D02*
X224300Y700020D01*
X249700Y700020D02*
X249700Y684780D01*
X331600Y683680D02*
X331600Y698920D01*
X357000Y698920D02*
X357000Y683680D01*
X382400Y683680D02*
X382400Y698920D01*
X407800Y698920D02*
X407800Y683680D01*
X750900Y684680D02*
X750900Y699920D01*
X776300Y699920D02*
X776300Y684680D01*
X627500Y684680D02*
X627500Y699920D01*
X652900Y699920D02*
X652900Y684680D01*
X678300Y684680D02*
X678300Y699920D01*
X489400Y700920D02*
X489400Y685680D01*
X514800Y685680D02*
X514800Y700920D01*
X540200Y700920D02*
X540200Y685680D01*
X910480Y669100D02*
X925720Y669100D01*
X925720Y643700D02*
X910480Y643700D01*
X910480Y618300D02*
X925720Y618300D01*
X925720Y592900D02*
X910480Y592900D01*
X911880Y530600D02*
X927120Y530600D01*
X927120Y505200D02*
X911880Y505200D01*
X911880Y479800D02*
X927120Y479800D01*
X927120Y454400D02*
X911880Y454400D01*
X912180Y393800D02*
X927420Y393800D01*
X927420Y368400D02*
X912180Y368400D01*
X912180Y343000D02*
X927420Y343000D01*
X927420Y317600D02*
X912180Y317600D01*
X911780Y255940D02*
X927020Y255940D01*
X927020Y230540D02*
X911780Y230540D01*
X911780Y205140D02*
X927020Y205140D01*
X927020Y179740D02*
X911780Y179740D01*
X518000Y56520D02*
X518000Y41280D01*
X492600Y41280D02*
X492600Y56520D01*
X467200Y56520D02*
X467200Y41280D01*
X441800Y41280D02*
X441800Y56520D01*
X817800Y56720D02*
X817800Y41480D01*
X792400Y41480D02*
X792400Y56720D01*
X767000Y56720D02*
X767000Y41480D01*
X741600Y41480D02*
X741600Y56720D01*
X665000Y56220D02*
X665000Y40980D01*
X639600Y40980D02*
X639600Y56220D01*
X614200Y56220D02*
X614200Y40980D01*
X588800Y40980D02*
X588800Y56220D01*
D13*
X43000Y370000D03*
X43000Y420800D03*
X43000Y471600D03*
D10*
X464600Y200620D02*
X464600Y185380D01*
X490000Y185380D02*
X490000Y200620D01*
X515400Y200620D02*
X515400Y185380D01*
X204600Y185380D02*
X204600Y200620D01*
X230000Y200620D02*
X230000Y185380D01*
X255400Y185380D02*
X255400Y200620D01*
X595600Y200620D02*
X595600Y185380D01*
X621000Y185380D02*
X621000Y200620D01*
X646400Y200620D02*
X646400Y185380D01*
X358400Y56720D02*
X358400Y41480D01*
X333000Y41480D02*
X333000Y56720D01*
X307600Y56720D02*
X307600Y41480D01*
X213400Y41480D02*
X213400Y56720D01*
X188000Y56720D02*
X188000Y41480D01*
X162600Y41480D02*
X162600Y56720D01*
X325600Y185380D02*
X325600Y200620D01*
X351000Y200620D02*
X351000Y185380D01*
X376400Y185380D02*
X376400Y200620D01*
X910262Y111400D02*
X925502Y111400D01*
X925502Y86000D02*
X910262Y86000D01*
X910262Y60600D02*
X925502Y60600D01*
M02*
