M48
;GenerationSoftware,Autodesk,EAGLE,9.7.0*%
;CreationDate,2024-10-17T09:34:55Z*%
FMAT,2
ICI,OFF
METRIC,TZ,000.000
T3C0.350
T2C1.016
T1C1.200
%
G90
M71
T1
X4300Y37000
X4300Y47160
X4300Y42080
T2
X77570Y11840
X91788Y11140
X91788Y8600
X91788Y6060
X21690Y11840
X24230Y11840
X26770Y11840
X29310Y11840
X31850Y11840
X34390Y11840
X39470Y11840
X42010Y11840
X44550Y11840
X47090Y11840
X49630Y11840
X52170Y11840
X54710Y11840
X57250Y11840
X62330Y11840
X64870Y11840
X67410Y11840
X69950Y11840
X72490Y11840
X75030Y11840
X85190Y24540
X80110Y11840
X34390Y60100
X36930Y60100
X39470Y60100
X42010Y60100
X44550Y60100
X47090Y60100
X49630Y60100
X52170Y60100
X57250Y60100
X59790Y60100
X62330Y60100
X64870Y60100
X67410Y60100
X69950Y60100
X72490Y60100
X75030Y60100
X12545Y60100
X15085Y60100
X17625Y60100
X20165Y60100
X22705Y60100
X25245Y60100
X27785Y60100
X30325Y60100
X82650Y24540
X85190Y27080
X82650Y27080
X85190Y29620
X82650Y29620
X85190Y32160
X82650Y32160
X85190Y34700
X82650Y34700
X85190Y37240
X82650Y37240
X85190Y39780
X82650Y39780
X85190Y42320
X82650Y42320
X85190Y16920
X82650Y16920
X85190Y19460
X82650Y19460
X85190Y22000
X82650Y22000
X85190Y44860
X82650Y44860
X85190Y47400
X82650Y47400
X85190Y49940
X82650Y49940
X85190Y52480
X82650Y52480
X85190Y55020
X82650Y55020
X85190Y57560
X82650Y57560
X85190Y60100
X82650Y60100
X26030Y31960
X26030Y34500
X26030Y37040
X26030Y39580
X26030Y42120
X26030Y44660
X26030Y47200
X26030Y49740
X13330Y49740
X13330Y47200
X13330Y44660
X13330Y42120
X13330Y39580
X13330Y37040
X13330Y34500
X13330Y31960
X74300Y31960
X74300Y34500
X74300Y37040
X74300Y39580
X74300Y42120
X74300Y44660
X74300Y47200
X74300Y49740
X61600Y49740
X61600Y47200
X61600Y44660
X61600Y42120
X61600Y39580
X61600Y37040
X61600Y34500
X61600Y31960
X51450Y31960
X51450Y34500
X51450Y37040
X51450Y39580
X51450Y42120
X51450Y44660
X51450Y47200
X51450Y49740
X38750Y49740
X38750Y47200
X38750Y44660
X38750Y42120
X38750Y39580
X38750Y37040
X38750Y34500
X38750Y31960
X5090Y52810
X5090Y55350
X5090Y57890
X5090Y60430
X17350Y69240
X19890Y69240
X22430Y69240
X24970Y69240
X33160Y69130
X35700Y69130
X38240Y69130
X40780Y69130
X75090Y69230
X77630Y69230
X62750Y69230
X65290Y69230
X67830Y69230
X48940Y69330
X51480Y69330
X54020Y69330
X91810Y66910
X91810Y64370
X91810Y61830
X91810Y59290
X91950Y53060
X91950Y50520
X91950Y47980
X91950Y45440
X91980Y39380
X91980Y36840
X91980Y34300
X91980Y31760
X91940Y25594
X91940Y23054
X91940Y20514
X91940Y17974
X51800Y4890
X49260Y4890
X46720Y4890
X44180Y4890
X81780Y4910
X79240Y4910
X76700Y4910
X74160Y4910
X66500Y4860
X63960Y4860
X61420Y4860
X58880Y4860
X46460Y19300
X49000Y19300
X51540Y19300
X20460Y19300
X23000Y19300
X25540Y19300
X59560Y19300
X62100Y19300
X64640Y19300
X35840Y4910
X33300Y4910
X30760Y4910
X21340Y4910
X18800Y4910
X16260Y4910
X32560Y19300
X35100Y19300
X37640Y19300
T3
X33900Y28000
X48300Y28000
X57700Y28100
X22600Y28000
X54020Y47800
X34000Y53100
M30