M48
;GenerationSoftware,Autodesk,EAGLE,9.7.0*%
;CreationDate,2024-10-10T14:37:58Z*%
FMAT,2
ICI,OFF
METRIC,TZ,000.000
T3C0.350
T2C1.016
T1C1.200
%
G90
M71
T1
X4300Y42080
X4300Y37000
X4300Y47160
T2
X54710Y11840
X63660Y5460
X61120Y5460
X58580Y5460
X92640Y15950
X92640Y13410
X92640Y10870
X92640Y8330
X61860Y20300
X64400Y20300
X66940Y20300
X21690Y11840
X24230Y11840
X26770Y11840
X29310Y11840
X31850Y11840
X34390Y11840
X39470Y11840
X42010Y11840
X44550Y11840
X47090Y11840
X49630Y11840
X52170Y11840
X52170Y60100
X57250Y11840
X62330Y11840
X64870Y11840
X67410Y11840
X69950Y11840
X72490Y11840
X75030Y11840
X77570Y11840
X80110Y11840
X57250Y60100
X59790Y60100
X62330Y60100
X64870Y60100
X67410Y60100
X69950Y60100
X72490Y60100
X75030Y60100
X34390Y60100
X36930Y60100
X39470Y60100
X42010Y60100
X44550Y60100
X47090Y60100
X49630Y60100
X12545Y60100
X15085Y60100
X17625Y60100
X20165Y60100
X22705Y60100
X25245Y60100
X27785Y60100
X30325Y60100
X85190Y24540
X82650Y24540
X85190Y27080
X82650Y27080
X85190Y29620
X82650Y29620
X85190Y32160
X82650Y32160
X85190Y34700
X82650Y34700
X85190Y37240
X82650Y37240
X85190Y39780
X82650Y39780
X85190Y42320
X82650Y42320
X85190Y16920
X82650Y16920
X85190Y19460
X82650Y19460
X85190Y22000
X82650Y22000
X85190Y44860
X82650Y44860
X85190Y47400
X82650Y47400
X85190Y49940
X82650Y49940
X85190Y52480
X82650Y52480
X85190Y55020
X82650Y55020
X85190Y57560
X82650Y57560
X85190Y60100
X82650Y60100
X26030Y31960
X26030Y34500
X26030Y37040
X26030Y39580
X26030Y42120
X26030Y44660
X26030Y47200
X26030Y49740
X13330Y49740
X13330Y47200
X13330Y44660
X13330Y42120
X13330Y39580
X13330Y37040
X13330Y34500
X13330Y31960
X74300Y31960
X74300Y34500
X74300Y37040
X74300Y39580
X74300Y42120
X74300Y44660
X74300Y47200
X74300Y49740
X61600Y49740
X61600Y47200
X61600Y44660
X61600Y42120
X61600Y39580
X61600Y37040
X61600Y34500
X61600Y31960
X51450Y31960
X51450Y34500
X51450Y37040
X51450Y39580
X51450Y42120
X51450Y44660
X51450Y47200
X51450Y49740
X38750Y49740
X38750Y47200
X38750Y44660
X38750Y42120
X38750Y39580
X38750Y37040
X38750Y34500
X38750Y31960
X5090Y52810
X5090Y55350
X5090Y57890
X5090Y60430
X19850Y69840
X22390Y69840
X24930Y69840
X27470Y69840
X33060Y69830
X35600Y69830
X38140Y69830
X40680Y69830
X72090Y69640
X74630Y69640
X59670Y69680
X62210Y69680
X64750Y69680
X48560Y69670
X51100Y69670
X53640Y69670
X92510Y61110
X92510Y58570
X92510Y56030
X92510Y53490
X92450Y50260
X92450Y47720
X92450Y45180
X92450Y42640
X92480Y39280
X92480Y36740
X92480Y34200
X92480Y31660
X92640Y28360
X92640Y25820
X92640Y23280
X92640Y20740
X52300Y5490
X49760Y5490
X47220Y5490
X44680Y5490
X81280Y5210
X78740Y5210
X76200Y5210
X73660Y5210
X66200Y5460
T3
X25000Y51250
X33750Y51250
X87250Y26750
X63750Y13500
X76250Y13250
X29250Y53750
X25750Y53750
X52000Y55000
X50000Y54750
X47750Y55250
X40700Y48700
X50250Y53750
X52750Y51250
M30